<svg id="Layer_1" data-name="Layer 1" xmlns="http://www.w3.org/2000/svg" viewBox="0 0 1024 1024"><defs><style>.cls-1{fill:#f9a19b;}.cls-2{fill:#fdfdfa;}.cls-3{fill:#f8f9f5;}.cls-4{fill:#bde262;}.cls-5{fill:#f65642;}.cls-6{fill:#e10006;}</style></defs><path class="cls-1" d="M470.87,213.32c.27-.37.29-1.32.31-3.21a470,470,0,0,1,12.93-105.73c6.06-25.34,19.57-45.26,43.8-56.72,7.56-3.57,15.61-5.71,23.69-7.57,25.35-5.82,51.16-8.17,77-10.08,4.18-.31,8.54.33,12.43-1.91H1465.9a5.47,5.47,0,0,0,1.5,1c9.7,2.48,18.63,6.34,25.49,14V998.91c-1.72,1.67-2.24,4-3.05,6.09-8.3,21.62-24.47,33.49-46.63,38.2a423,423,0,0,1-59.18,8l-15.36.06c-14.37-.86-28.73-1.72-43.06-3.2-15.22-1.56-30.56-2-45.79-3.52-26.54-2.62-53.17-3.22-79.77-3.56-42.79-.53-85.6-.24-128.4,0-50.89.33-101.79-1.42-152.65,1.55-18.92,1.1-37.82,2.34-56.75,3.19-12,.54-24,.52-35.93.67-45.46.55-90.9,1.52-136.33,3.21-18.62.69-37.28.2-55.92.25-8,.88-15.77-1.21-23.66-1.75-13.76-.94-27.52-2-40.93-5.55-12.64-3.34-23.64-10.63-35.82-15.07-7.85-2.86-15.5-6.24-21.93-11.61-12.29-10.27-18.53-24-21.61-39.43-4.93-24.76-6.38-49.74-6.3-75,.13-36.63,1.47-73.27.2-109.89-1.76-50.75-7.42-101.21-12.51-151.7-.63-6.33-.14-12.84-2.41-19V583a20.46,20.46,0,0,0,.59-3.35c.21-26.79,1.49-53.57.79-80.37-.52-19.77-1.67-39.56-1.17-59.31q.75-29.91,1.06-59.84c.33-31.73-1.18-63.44-.57-95.17.31-16.3,1.5-32.58,1-48.89.09-3.78.24-7.55.21-11.33a3.61,3.61,0,0,0-.33-1.84m265.07,379.5-.15.14c.37-.49.74-1,1.1-1.46l.21-.25.66-.81A33,33,0,0,0,743,585.77a356.84,356.84,0,0,0,2.72-64.1c-.57-12.1-1.69-24.18-2.49-36.27a29,29,0,0,1,.31-4.34,2.22,2.22,0,0,1,.69.12c.1.05.1.3.15.46-1.07-2-.74-4.19-.85-6.32-.29-5.94.54-11.91-.5-17.82,0-2.83,0-5.65,0-8.47l8.07-.53-.1,0c2,.18,3.95.48,5.93.51,10,.18,19.91.29,29.87.42,3.25,6.44,3.71,13.4,3.35,20.38-1.1,21.14-5.62,41.69-11.59,61.9-1.51,5.1-2,9.06,2.13,12.77.88,3.07,3,2.68,5.13,1.68,5.27-2.46,10.6-4.83,15.72-7.59a468.61,468.61,0,0,0,116.71-88.7,9.73,9.73,0,0,1,7.85-3.2c38.27.31,76.46-3.1,114.74-2.68,21.5.74,43,.68,64.51.58,11.32.32,22.64.35,33.94,1,26.92,1.59,53.79,4.44,80.82,3.17,14.23-.67,28.26-2.37,40.39-10.93,16.11-11.36,24.3-27.56,27.44-46.44,5.14-30.92,7.2-62.19,8.71-93.44a847.11,847.11,0,0,0-2.94-122.24c-1.65-17.1-5-33.65-16-47.54-6.08-7.62-13.13-14-22.65-17.15-.19-3.32-3.24-3.5-5.29-4.53-15.74-7.89-32.74-8.16-49.78-7.78-30.76.7-61.47,3.39-92.31,1.5q-29.89-1.82-59.91-1.46c-24.14.26-48.3-.34-72.42,1.09-27.73,1.65-55.35,4.75-83.24,2.94-28.45-1.86-56.95.22-85.43.14-8.9,0-18.18.6-26.61-.65-17.32-2.58-34.31-3.91-51.41-.2-19.73,4.27-35.78,14.08-45.76,32.34-6.92,12.66-10,26.51-11.56,40.57-3.66,34-3.5,68.15-3.43,102.29,0,26,1.93,51.92,3.39,77.86,1,17.42.69,35.08,10.32,50.74.11.17-.12.54-.32,1.33a1025.89,1025.89,0,0,0-116.18.79,59,59,0,0,0-15.42-.49c-5.86-.07-11.74-.53-17.55.78a21.16,21.16,0,0,0-7.73,3.06l.1-.14-1.92,1,0,0-1.66,1.07c-11.91,7.88-17,19.39-17.95,33.25A407.79,407.79,0,0,0,503,497c1.42,25.77,3.29,51.53,1.1,77.35a39.65,39.65,0,0,0,1,10.91c3.18,16.56,19.12,30,35.15,30.33,21.8.46,43.6-.72,65.4.35,7.31.36,7.18-1.43,7.19,7.36,0,40.81,0,81.61.06,122.42,0,11.35,4.77,20.5,13.87,27.34,1.7,1.85,3.51,3.53,6.13,4a2.36,2.36,0,0,0,2.13,1,3.84,3.84,0,0,0,3.3,1.17,2.91,2.91,0,0,0,2.69.77,9,9,0,0,0,5.06.71l7.89,0,13-.08,5,0c20.49.08,41,.11,61.46.31,4.22,0,9.75-2.07,12.32,1s.94,8.35.6,12.63c-.91,11.5,2.81,21.24,10.36,29.76a44.17,44.17,0,0,0,47.86,12.2c15.38-5.62,29.28-21.9,28.32-40.18-.28-5.48-.16-11,0-16.49.6-16.5-7.2-28.35-20.59-36.88-22.78-14.51-55.37-3.19-63.48,21.87a2.07,2.07,0,0,0-.82,2.17,5.84,5.84,0,0,0-.95,4.06l-.13,2c-.87,2.7-3.16,1.86-5,1.88-13,.13-26,.18-39,.27h-12l-19,0h-5l-24.31-.26-1.64-.63-6.53-2.48c-9.15-6.35-15.84-14.15-15.84-26.1,0-41.31.08-82.63-.08-123.94,0-4.53,1.27-5.68,5.79-5.64,24.32.2,48.59,2.47,72.93,1.79,8.79-.25,17.69-.44,25.47-5.52l1.17-.62a.79.79,0,0,0,.51-.22,25.46,25.46,0,0,0,10.13-7.89l-.1.16Zm425.18,88.54a8.11,8.11,0,0,0-4,2.82l-.18.12c-4.21,2.27-8.32,4.73-12.64,6.76a88.83,88.83,0,0,1-42.91,8.21l-3.29-.15c-2.49-1.26-4.15-1-4.19,2.27-.12,9.9-.61,19.81.69,29.68l.45,2.62a9.32,9.32,0,0,0,.65,5.44c.11.8.23,1.59.35,2.39-.45,2.89.57,5.61,1.09,8.36,5.1,26.95,14.48,52.15,30.76,74.49l.21.31A77.44,77.44,0,0,0,1138.57,848l.28.33A143.86,143.86,0,0,0,1170.71,879l.19.15c2.28,1.87,4.6,3.68,6.82,5.61,3,2.65,5.78,2.61,8.33-.62l.13-.11a36.13,36.13,0,0,0,8.87-6.87l.18-.13A162.27,162.27,0,0,0,1229.09,843l.85-1.11a154.21,154.21,0,0,0,20.87-33.61c4.18-8.95,7.51-18.29,11.22-27.46q44.23,0,88.47-.05a36.75,36.75,0,0,0,36.32-36.27q.11-50.73.07-101.46c0-15.12,0-30.24,0-45.56,2.53.32,4.39,2.16,6.85.29,6-4.52,12.38-8.4,18.14-13.23A164.33,164.33,0,0,0,1464.62,505c7.45-24.4,9-49.36,7-74.65-.22-2.86-.93-4.17-4.6-3.73a76.65,76.65,0,0,1-37.32-4.36,94.32,94.32,0,0,1-35.08-24.13c-2.47-2.64-3.83-3.22-6.77-.15C1367.76,419,1343.6,430.06,1314,426.6c-2.86-.33-2.91,1-3.14,3a179.13,179.13,0,0,0,.07,40.88c5.48,49,26.31,89.59,66.15,119.6a8.73,8.73,0,0,1,4,7.83q-.19,73.47-.09,147a30.41,30.41,0,0,1-29.92,30c-29.32.07-58.65,0-88,0a221.66,221.66,0,0,0,6.67-61.2c-.13-4.62-1.49-5.41-5.75-5-20.23,1.85-38.84-3.19-56-14a16,16,0,0,0-4.79-3.77l-.18-.14L1189.88,679l-.9-1c-1.14-1.57-2.31-3.13-3.43-4.72-2.51-3.57-4.84-4.06-6.92.36l-12.79,13-.22.21c-1.41.81-2.94,1.49-3.66,3.11ZM931.12,786.66c0,3.42.13,5.76,0,8.08-1,15.85,6.09,27.81,18.64,36.42,14.19,9.73,29.71,10.8,45,2.87,14.86-7.73,23.94-19.85,24-37.42,0-5.33-.11-10.67,0-16,.51-17-7.21-29.23-21.46-37.89-23.91-14.55-56.76-2.34-64.83,24.16C930.36,773.74,931.53,780.79,931.12,786.66Z" transform="translate(-469 -28)"/><path class="cls-2" d="M469.1,621c2.27,6.13,1.78,12.64,2.41,19,5.09,50.49,10.75,100.95,12.51,151.7,1.27,36.62-.07,73.26-.2,109.89-.08,25.22,1.37,50.2,6.3,75,3.08,15.48,9.32,29.16,21.61,39.43,6.43,5.37,14.08,8.75,21.93,11.61,12.18,4.44,23.18,11.73,35.82,15.07,13.41,3.53,27.17,4.61,40.93,5.55,7.89.54,15.67,2.63,23.66,1.75,0,.66,0,1.32,0,2q-80.47,0-161,.1c-3.43,0-4.1-.67-4.1-4.1Q469.17,834.45,469.1,621Z" transform="translate(-469 -28)"/><path class="cls-3" d="M634.06,1051.9c0-.66,0-1.32,0-2,18.64-.05,37.3.44,55.92-.25,45.43-1.69,90.87-2.66,136.33-3.21,12-.15,24-.13,35.93-.67,18.93-.85,37.83-2.09,56.75-3.19,50.86-3,101.76-1.22,152.65-1.55,42.8-.28,85.61-.57,128.4,0,26.6.34,53.23.94,79.77,3.56,15.23,1.5,30.57,2,45.79,3.52,14.33,1.48,28.69,2.34,43,3.2l-1.73.61Z" transform="translate(-469 -28)"/><path class="cls-2" d="M641.06,28.1c-3.89,2.24-8.25,1.6-12.43,1.91-25.87,1.91-51.68,4.26-77,10.08-8.08,1.86-16.13,4-23.69,7.57-24.23,11.46-37.74,31.38-43.8,56.72a470,470,0,0,0-12.93,105.73c0,3.78-.09,3.78-2.08,3q0-90.36-.1-180.72c0-3.57.7-4.36,4.33-4.35Q557.2,28.23,641.06,28.1Z" transform="translate(-469 -28)"/><path class="cls-3" d="M1385.07,1051.16a422.13,422.13,0,0,0,58.14-8c22.16-4.71,38.33-16.58,46.63-38.2.81-2.09,1.33-4.42,3.05-6.09,0,16.5-.09,33,.09,49.49,0,3-.6,3.6-3.59,3.59-34.15-.14-68.31-.09-102.47-.09Z" transform="translate(-469 -28)"/><path class="cls-3" d="M470.77,236.06c.53,16.31-.66,32.59-1,48.89-.61,31.73.9,63.44.57,95.17Q470,410,469.31,440c-.5,19.75.65,39.54,1.17,59.31.7,26.8-.58,53.58-.79,80.37a20.46,20.46,0,0,1-.59,3.35V236.06Z" transform="translate(-469 -28)"/><path class="cls-3" d="M1492.89,43.1c-6.86-7.64-15.79-11.5-25.49-14a5.47,5.47,0,0,1-1.5-1c8.07,0,16.14.08,24.21-.05,2.13,0,3.06.15,2.87,2.7C1492.67,34.85,1492.89,39,1492.89,43.1Z" transform="translate(-469 -28)"/><path class="cls-2" d="M470.77,236.06H469.1v-12c1.64-2.67,1.87-.66,1.88.67C471,228.51,470.86,232.28,470.77,236.06Z" transform="translate(-469 -28)"/><path class="cls-4" d="M1385.07,1051.16l1.85.74h-20l1.73-.61Z" transform="translate(-469 -28)"/><path class="cls-5" d="M1255,111c9.52,3.11,16.57,9.53,22.65,17.15,11.08,13.89,14.39,30.44,16,47.54A847.11,847.11,0,0,1,1296.63,298c-1.51,31.25-3.57,62.52-8.71,93.44-3.14,18.88-11.33,35.08-27.44,46.44-12.13,8.56-26.16,10.26-40.39,10.93-27,1.27-53.9-1.58-80.82-3.17-11.3-.67-22.62-.7-33.94-1-.86-1.66-2.42-1.54-3.91-1.55-16.14-.15-32.27-.46-48.4-.33-4,0-8.31-.74-12.2,1.3-38.28-.42-76.47,3-114.74,2.68a9.73,9.73,0,0,0-7.85,3.2,468.61,468.61,0,0,1-116.71,88.7c-5.12,2.76-10.45,5.13-15.72,7.59-2.13,1-4.25,1.39-5.13-1.68a11.94,11.94,0,0,1,.26-3.41c5.94-15.6,9.65-31.78,12.7-48.12,1.9-10.15,3.48-20.35,2.55-30.71-.55-6-3.4-10.65-9.4-12.81-10-.13-19.92-.24-29.87-.42-2,0-4-.33-5.93-.51l.1,0c-2.69.17-5.38.35-8.06.5q.54-1.11.39.09c-5.61-2.62-11.74-3.43-17.62-5.13-11.4-3.29-19.8-11.14-28.5-18.55l.1,0a3,3,0,0,1-.52-.7L696,424l.09.07L695,422l.07.11c-6.36-12-11.13-24.53-12.12-38.14-2.87-39.69-6.52-79.35-5.38-119.23.87-30.47,1-61,4.44-91.31,1.8-16,6.5-31,17.32-43.41,13.73-15.79,31.77-21.88,52-22.91s40.63.68,61,.71c27.32,0,54.65-1.13,82,.34,15,.81,30,1.31,45,.2a1383.93,1383.93,0,0,1,142.85-3.21c32.66.95,65.28,1.23,97.91-1.05C1205.29,102.31,1230.58,102.42,1255,111ZM986.93,383.87v-.05c17.15,0,34.31.07,51.46,0,8.66-.05,13.22-4.66,13.42-13.28.1-4.66.06-9.32.06-14,0-20.82.07-41.64,0-62.45,0-7.89-3.42-11.82-10.75-12.06-3.45-.1-4.19-1.52-4.14-4.56.13-8.49.36-17,0-25.47-.83-19-10.53-33.16-26.72-41.77-34.38-18.28-74.12,6.36-74.12,45.27,0,7.32,0,14.65,0,22,0,2.28-.09,4-3.27,4.41-8.16.95-10.92,4.3-10.93,12.46q0,37.49,0,74.95c0,10.31,4.26,14.56,14.56,14.58Q961.71,383.91,986.93,383.87ZM883.17,289.08c.07-10.18-7.89-17.95-18.49-18.05a18.35,18.35,0,0,0,.52,36.7C875.39,307.66,883.1,299.66,883.17,289.08ZM1108.53,271a18.18,18.18,0,0,0-18.66,18.54c0,9.46,8.34,18,17.65,18.14A18.61,18.61,0,0,0,1126.79,289C1126.8,279.38,1118.29,271,1108.53,271Z" transform="translate(-469 -28)"/><path class="cls-5" d="M697.29,425.41c8.7,7.41,17.1,15.26,28.5,18.55,5.88,1.7,12,2.51,17.61,5.12q-.18,4.2-.34,8.42c1,5.91.21,11.88.5,17.82.11,2.13-.22,4.32.83,6.29a65,65,0,0,1,.2,7.89c-1.9,19.56-1.07,39.23-2.49,58.79-1.25,17.25,1.91,34.93-4.56,51.72l-.65.8-.22.26c-.36.49-.73,1-1.1,1.46l.15-.14-1.16,1.35.09-.16a25.46,25.46,0,0,1-10.13,7.89.85.85,0,0,1-.51.22l-1.17.62a68.87,68.87,0,0,1-7.43.6c-28.47-.62-56.93-.74-85.4-.64-25.47.1-51-1.13-76.33,2.18-9.16,1.2-17.11-.65-24.89-4.59-5.16-2.61-10.45-5.37-13.65-10.54-5.56-9-8.75-18.61-8.4-29.31.36-11.15.73-22.3.79-33.46.16-30.62-1.43-61.24.08-91.88.42-8.42,1.3-16.41,6.43-23.53,2.07-2.87,4.76-5.06,6.87-7.82l1.65-1.07,0,0,1.91-1-.09.14a21,21,0,0,1,7.71-3.05c5.78-3.36,12.07-1.65,18.2-1.65.36,0,.47.67-.14.88a1.36,1.36,0,0,1-.49,0A59.06,59.06,0,0,1,565,408a.69.69,0,0,1-.17-.22c.15,0,.3-.17.45-.16l15.48.6c32,1.17,64-.09,95.92-1.44,5.27-.22,8.73,1.09,11.22,6.12,1.68,3.38,3.15,7.41,7.17,9.18L695,422l1.08,2.09L696,424l.86.74a3.22,3.22,0,0,0,.51.7ZM595.14,455.19a10.13,10.13,0,0,0-4,5.86l0,.07c-2.75,2.73-3.56,6.3-4.14,9.92-1.08,6.62-.44,13.3-.37,19.95,0,2.63-.56,4.16-3.36,5.16-6.94,2.5-9.07,5.75-9.07,13.15q0,26.49.19,53c0,7.24,5.25,13,12.39,13q37.47.16,74.94-.2a11.9,11.9,0,0,0,11.76-11.44q.39-28.47.06-56.95c0-5.09-2.8-9-8.16-9.95-3.6-.61-4.75-2.38-4.43-5.76a22.19,22.19,0,0,0-.32-4,21.06,21.06,0,0,0,0-8c.82-10.09-1.93-18.85-9.61-25.77a3.23,3.23,0,0,0-2.13-2.15,14.4,14.4,0,0,0-6.81-5l0,0a30.15,30.15,0,0,0-21.88-4.82l-2.08.26c-3.52.28-6.9,1-9.69,3.35l-1.32.47a4.39,4.39,0,0,0-3.41,1.88l-1.52,1a14.35,14.35,0,0,0-6.91,6.86Z" transform="translate(-469 -28)"/><path class="cls-5" d="M1094.84,743.26l-.45-2.62c1.09-8.86,0-17.75.36-26.63.11-2.44.16-4.68,3.14-5.32l3.29.15c1.4,1.18,3.11.91,4.74.95a84.92,84.92,0,0,0,29.74-4.51c7.59-2.59,15.2-5.49,21.07-11.41l.18-.12a4.3,4.3,0,0,0,4-2.82l1-1a4.24,4.24,0,0,0,3.67-3.11l.21-.21c6.08-2.54,9.31-7.89,12.8-13,5.17-2.64,7.1,2.42,10.35,4.36l.9,1c3.22,5.22,7.91,8.8,13.16,11.75l.17.14c1,2,2.24,3.74,4.8,3.77,17.13,10.81,35.74,15.85,56,14,4.26-.39,5.62.4,5.75,5a221.66,221.66,0,0,1-6.67,61.2c-1.49,1.43-1,3.64-2.08,5.24a10.15,10.15,0,0,0-1.53,2.48c-4.54,16.46-12,31.56-21.1,45.92-2.83,4.44-6.66,8.28-8.41,13.4l-.85,1.11a11,11,0,0,0-2.33,1.76c-7.12,9.24-15.51,17.25-24.09,25.08-2.55,2.34-5,4.82-7.44,7.23l-.18.13a15.64,15.64,0,0,0-8.87,6.87l-.13.1c-4,2.53-7.12.56-10.21-1.93-1.51-1.21-2.65-3.09-4.94-3l-.19-.15c-10.83-10-21.72-20-31.86-30.69l-.27-.32a47.14,47.14,0,0,0-10.68-13.78l-.21-.31c.08-1.83-1.24-3-2.12-4.39a189.26,189.26,0,0,1-23.4-52c-2.44-8.78-3.46-17.85-6.33-26.49-.12-.8-.24-1.59-.35-2.39C1096,746.8,1096.35,744.92,1094.84,743.26ZM1251,736.91c0-3-.14-5.71,0-8.36.22-3.23-1.15-4.33-4.33-4.5-23.74-1.27-44.2-10.3-61.39-26.65-2.39-2.27-3.9-2.56-6.55-.19-17.65,15.82-38,25.6-62,26.86-4,.21-5.29,1.91-5.17,5.95,1.6,51.17,21,94,59.69,127.78,9.81,8.57,9.82,8.56,19.65,0l.76-.65C1227.62,824.88,1247.11,784.59,1251,736.91Z" transform="translate(-469 -28)"/><path class="cls-3" d="M1261,780.09c1.06-1.6.59-3.81,2.08-5.24,29.32,0,58.65,0,88,0a30.41,30.41,0,0,0,29.92-30q0-73.47.09-147a8.73,8.73,0,0,0-4-7.83c-39.84-30-60.67-70.56-66.15-119.6a179.13,179.13,0,0,1-.07-40.88c.23-2,.28-3.31,3.14-3,29.63,3.46,53.79-7.57,73.88-28.63,2.94-3.07,4.3-2.49,6.77.15a94.32,94.32,0,0,0,35.08,24.13,76.65,76.65,0,0,0,37.32,4.36c3.67-.44,4.38.87,4.6,3.73,2,25.29.45,50.25-7,74.65a164.33,164.33,0,0,1-52.74,79.55c-5.76,4.83-12.18,8.71-18.14,13.23-2.46,1.87-4.32,0-6.85-.29,0,15.32,0,30.44,0,45.56q0,50.73-.07,101.46a36.75,36.75,0,0,1-36.32,36.27q-44.24,0-88.47.05Zm61.81-324.87a123.11,123.11,0,0,0,1.36,20.93c5.47,40.56,23,74.5,55.63,99.85,12.31,9.56,9.86,9.94,22.4-.25,41.73-33.94,59.9-78.2,57-131.58-.22-3.93-1.72-5.11-5.47-5.13-21.9-.12-41-7.79-57.46-22.06-3.56-3.09-6.1-3.08-9.78,0a96.89,96.89,0,0,1-49.06,22c-4.63.66-10.68-2.16-13.61,2.06C1321.16,444.76,1323.07,450.42,1322.79,455.22Z" transform="translate(-469 -28)"/><path class="cls-3" d="M695.09,422.08c-4-1.77-5.49-5.8-7.17-9.18-2.49-5-5.95-6.34-11.22-6.12-32,1.35-63.92,2.61-95.92,1.44l-15.48-.6c-.15,0-.3.11-.45.16a.69.69,0,0,0,.17.22,1029,1029,0,0,1,116.22-.78c.2-.79.43-1.16.32-1.33-9.63-15.66-9.33-33.32-10.32-50.74-1.46-25.94-3.34-51.86-3.39-77.86-.07-34.14-.23-68.3,3.43-102.29,1.52-14.06,4.64-27.91,11.56-40.57,10-18.26,26-28.07,45.76-32.34,17.1-3.71,34.09-2.38,51.41.2,8.43,1.25,17.71.63,26.61.65,28.48.08,57-2,85.43-.14,27.89,1.81,55.51-1.29,83.24-2.94,24.12-1.43,48.28-.83,72.42-1.09q30-.33,59.91,1.46c30.84,1.89,61.55-.8,92.31-1.5,17-.38,34-.11,49.78,7.78,2,1,5.1,1.21,5.29,4.53-24.42-8.62-49.71-8.73-75-7-32.63,2.28-65.25,2-97.91,1.05a1383.93,1383.93,0,0,0-142.85,3.21c-15,1.11-30,.61-45-.2-27.31-1.47-54.64-.29-82-.34-20.33,0-40.63-1.75-61-.71s-38.26,7.12-52,22.91c-10.82,12.44-15.52,27.43-17.32,43.41-3.42,30.33-3.57,60.84-4.44,91.31-1.14,39.88,2.51,79.54,5.38,119.23C684,397.55,688.73,410.1,695.09,422.08Z" transform="translate(-469 -28)"/><path class="cls-2" d="M672.06,775.08l19,0a18.56,18.56,0,0,0,12,0c13-.09,26-.14,39-.27,1.83,0,4.12.82,5-1.88a1.25,1.25,0,0,0,.13-2,5.84,5.84,0,0,1,.95-4.06c.27-.73.54-1.45.82-2.17,8.11-25.06,40.7-36.38,63.48-21.87,13.39,8.53,21.19,20.38,20.59,36.88-.21,5.49-.33,11,0,16.49,1,18.28-12.94,34.56-28.32,40.18a44.17,44.17,0,0,1-47.86-12.2c-7.55-8.52-11.27-18.26-10.36-29.76.34-4.28,1.86-9.7-.6-12.63s-8.1-.94-12.32-1c-20.49-.2-41-.23-61.46-.31C672.07,778.74,672.06,776.91,672.06,775.08Zm117.54,1.08v0h8.47c11.81,0,11.81,0,11.13-12a19.34,19.34,0,0,0-25.9-16.85c-10.32,3.9-16.18,16.17-13.15,27.21.53,2,1.74,1.63,3,1.64C778.63,776.17,784.12,776.16,789.6,776.16Zm-3.2,33.94c0,2.33.15,4.68,0,7-.24,2.92,1.33,3.15,3.65,3.14s3.82-.37,3.54-3.24a40.21,40.21,0,0,1,.07-6.49c.34-4.61-1-9.36,2.83-13.58,1.89-2.1.79-5.52-1.72-7.54a6.71,6.71,0,0,0-8.76-.23c-2.63,2-4.33,5.38-2.28,7.84C787.14,801.15,786.29,805.59,786.4,810.1Z" transform="translate(-469 -28)"/><path class="cls-2" d="M931.12,786.66c.41-5.87-.76-12.92,1.32-19.77,8.07-26.5,40.92-38.71,64.83-24.16,14.25,8.66,22,20.89,21.46,37.89-.15,5.32,0,10.66,0,16,0,17.57-9.12,29.69-24,37.42-15.26,7.93-30.78,6.86-45-2.87-12.55-8.61-19.64-20.57-18.64-36.42C931.25,792.42,931.12,790.08,931.12,786.66Zm43.23-10.52v-.07h10c10.14,0,10.14,0,9.95-10.25a19.59,19.59,0,0,0-18.21-19.52,19.38,19.38,0,0,0-20.89,17.18c-.4,3.28-.1,6.65-.28,10-.12,2.28.93,2.76,3,2.71C963.36,776.06,968.85,776.14,974.35,776.14Zm-3.19,33.58c0,2.33.08,4.65,0,7s-.06,3.91,3,3.59c2.35-.25,4.6.28,4.32-3.46-.29-4,.2-8,0-11.93a9,9,0,0,1,2.07-6.86c2.58-3,1.39-6-1-8.44a6.13,6.13,0,0,0-8.21-.74c-2.92,1.93-4.63,5.53-2.66,8.15C971.86,801.13,970.91,805.4,971.16,809.72Z" transform="translate(-469 -28)"/><path class="cls-3" d="M520.91,413.32c-2.11,2.76-4.8,4.95-6.87,7.82-5.13,7.12-6,15.11-6.43,23.53-1.51,30.64.08,61.26-.08,91.88-.06,11.16-.43,22.31-.79,33.46-.35,10.7,2.84,20.35,8.4,29.31,3.2,5.17,8.49,7.93,13.65,10.54,7.78,3.94,15.73,5.79,24.89,4.59,25.32-3.31,50.86-2.08,76.33-2.18,28.47-.1,56.93,0,85.4.64a68.87,68.87,0,0,0,7.43-.6c-7.78,5.08-16.68,5.27-25.47,5.52-24.34.68-48.61-1.59-72.93-1.79-4.52,0-5.81,1.11-5.79,5.64.16,41.31.11,82.63.08,123.94,0,12,6.69,19.75,15.84,26.1l-7.77,1.33c-9.1-6.84-13.85-16-13.87-27.34-.1-40.81,0-81.61-.06-122.42,0-8.79.12-7-7.19-7.36-21.8-1.07-43.6.11-65.4-.35-16-.33-32-13.77-35.15-30.33a39.65,39.65,0,0,1-1-10.91c2.19-25.82.32-51.58-1.1-77.35a407.79,407.79,0,0,1-.07-50.42C503.9,432.71,509,421.2,520.91,413.32Z" transform="translate(-469 -28)"/><path class="cls-3" d="M786.78,449.45c6,2.16,8.85,6.78,9.4,12.81.93,10.36-.65,20.56-2.55,30.71-3,16.34-6.76,32.52-12.7,48.12a11.94,11.94,0,0,0-.26,3.41c-4.09-3.71-3.64-7.67-2.13-12.77,6-20.21,10.49-40.76,11.59-61.9C790.49,462.85,790,455.89,786.78,449.45Z" transform="translate(-469 -28)"/><path class="cls-3" d="M737.54,600c6.47-16.79,3.31-34.47,4.56-51.72,1.42-19.56.59-39.23,2.49-58.79a65,65,0,0,0-.2-7.89c0-.13,0-.38-.13-.43a2.22,2.22,0,0,0-.69-.12,29,29,0,0,0-.31,4.34c.8,12.09,1.92,24.17,2.49,36.27a356.84,356.84,0,0,1-2.72,64.1A33,33,0,0,1,737.54,600Z" transform="translate(-469 -28)"/><path class="cls-2" d="M626.8,773.05l7.77-1.33,6.53,2.48,1.64.63,24.31.26v5.5l-13,.08a10.37,10.37,0,0,0-7.89,0,9,9,0,0,1-5.06-.71l-2.69-.77a3.84,3.84,0,0,1-3.3-1.17l-2.13-1C630.31,776.58,628.5,774.9,626.8,773.05Z" transform="translate(-469 -28)"/><path class="cls-5" d="M1095.84,751.09c2.87,8.64,3.89,17.71,6.33,26.49a189.26,189.26,0,0,0,23.4,52c.88,1.37,2.2,2.56,2.12,4.39-16.28-22.34-25.66-47.54-30.76-74.49C1096.41,756.7,1095.39,754,1095.84,751.09Z" transform="translate(-469 -28)"/><path class="cls-5" d="M1040.82,444c3.89-2,8.16-1.27,12.2-1.3,16.13-.13,32.26.18,48.4.33,1.49,0,3-.11,3.91,1.55C1083.83,444.69,1062.32,444.75,1040.82,444Z" transform="translate(-469 -28)"/><path class="cls-5" d="M1261,780.09l1,.73c-3.71,9.17-7,18.51-11.22,27.46a154.21,154.21,0,0,1-20.87,33.61c1.75-5.12,5.58-9,8.41-13.4,9.14-14.36,16.56-29.46,21.1-45.92A10.15,10.15,0,0,1,1261,780.09Z" transform="translate(-469 -28)"/><path class="cls-5" d="M1156.73,693.87c-5.87,5.92-13.48,8.82-21.07,11.41a84.92,84.92,0,0,1-29.74,4.51c-1.63,0-3.34.23-4.74-.95a88.83,88.83,0,0,0,42.91-8.21C1148.41,698.6,1152.52,696.14,1156.73,693.87Z" transform="translate(-469 -28)"/><path class="cls-5" d="M1195.23,877.07c2.47-2.41,4.89-4.89,7.44-7.23,8.58-7.83,17-15.84,24.09-25.08a11,11,0,0,1,2.33-1.76A162.27,162.27,0,0,1,1195.23,877.07Z" transform="translate(-469 -28)"/><path class="cls-5" d="M1138.85,848.35c10.14,10.72,21,20.68,31.86,30.69A143.86,143.86,0,0,1,1138.85,848.35Z" transform="translate(-469 -28)"/><path class="cls-5" d="M1097.89,708.69c-3,.64-3,2.88-3.14,5.32-.38,8.88.73,17.77-.36,26.63-1.3-9.87-.81-19.78-.69-29.68C1093.74,707.65,1095.4,707.43,1097.89,708.69Z" transform="translate(-469 -28)"/><path class="cls-5" d="M1170.9,879.19c2.29,0,3.43,1.84,4.94,3,3.09,2.49,6.21,4.46,10.21,1.93-2.55,3.24-5.29,3.28-8.33.63C1175.5,882.87,1173.18,881.06,1170.9,879.19Z" transform="translate(-469 -28)"/><path class="cls-5" d="M1127.9,834.25A47.14,47.14,0,0,1,1138.58,848,77.46,77.46,0,0,1,1127.9,834.25Z" transform="translate(-469 -28)"/><path class="cls-5" d="M1203,690.72c-5.25-3-9.94-6.53-13.16-11.75Z" transform="translate(-469 -28)"/><path class="cls-5" d="M1178.63,673.66c-3.49,5.1-6.72,10.45-12.8,13Z" transform="translate(-469 -28)"/><path class="cls-3" d="M667.05,780.59v-5.5h5c0,1.83,0,3.66,0,5.49Z" transform="translate(-469 -28)"/><path class="cls-5" d="M1189,678c-3.25-1.94-5.18-7-10.36-4.36,2.09-4.42,4.42-3.93,6.93-.36C1186.67,674.89,1187.84,676.45,1189,678Z" transform="translate(-469 -28)"/><path class="cls-3" d="M549.64,407.52a1.36,1.36,0,0,0,.49,0c.61-.21.5-.88.14-.88-6.13,0-12.42-1.71-18.2,1.65C537.9,407,543.78,407.45,549.64,407.52Z" transform="translate(-469 -28)"/><path class="cls-3" d="M743.06,457.5q.16-4.22.34-8.42c.11-.79,0-.82-.38-.08C743,451.85,743,454.67,743.06,457.5Z" transform="translate(-469 -28)"/><path class="cls-5" d="M1186.18,884.07a15.64,15.64,0,0,1,8.87-6.87A36.13,36.13,0,0,1,1186.18,884.07Z" transform="translate(-469 -28)"/><path class="cls-3" d="M703,775.1a18.56,18.56,0,0,1-12,0Z" transform="translate(-469 -28)"/><path class="cls-5" d="M1094.84,743.26c1.51,1.66,1.19,3.54.65,5.44A9.32,9.32,0,0,1,1094.84,743.26Z" transform="translate(-469 -28)"/><path class="cls-5" d="M1208,694.63c-2.56,0-3.8-1.74-4.8-3.77A15.89,15.89,0,0,1,1208,694.63Z" transform="translate(-469 -28)"/><path class="cls-5" d="M1165.62,686.86A4.24,4.24,0,0,1,1162,690C1162.68,688.35,1164.21,687.67,1165.62,686.86Z" transform="translate(-469 -28)"/><path class="cls-5" d="M1160.9,690.93a4.3,4.3,0,0,1-4,2.82A8.11,8.11,0,0,1,1160.9,690.93Z" transform="translate(-469 -28)"/><path class="cls-3" d="M646.11,780.63a10.37,10.37,0,0,1,7.89,0Z" transform="translate(-469 -28)"/><path class="cls-3" d="M747.2,771a1.25,1.25,0,0,1-.13,2Z" transform="translate(-469 -28)"/><path class="cls-3" d="M522.54,412.27l0,0Z" transform="translate(-469 -28)"/><path class="cls-3" d="M724,611.69a.85.85,0,0,0,.51-.22A.79.79,0,0,1,724,611.69Z" transform="translate(-469 -28)"/><path class="cls-3" d="M751.08,448.5l-.1,0Z" transform="translate(-469 -28)"/><path class="cls-3" d="M632.93,777l2.13,1A2.36,2.36,0,0,1,632.93,777Z" transform="translate(-469 -28)"/><path class="cls-3" d="M749,764.77c-.28.72-.55,1.44-.82,2.17A2.07,2.07,0,0,1,749,764.77Z" transform="translate(-469 -28)"/><path class="cls-3" d="M638.36,779.15l2.69.77A2.91,2.91,0,0,1,638.36,779.15Z" transform="translate(-469 -28)"/><path class="cls-3" d="M736.67,601.07l.22-.26Z" transform="translate(-469 -28)"/><path class="cls-3" d="M642.74,774.83l-1.64-.63Z" transform="translate(-469 -28)"/><path class="cls-3" d="M734.65,603.58l-.09.16Z" transform="translate(-469 -28)"/><path class="cls-3" d="M524.36,411.36l.09-.14Z" transform="translate(-469 -28)"/><path class="cls-3" d="M735.72,602.39l-.15.14Z" transform="translate(-469 -28)"/><path class="cls-2" d="M986.93,383.87q-25.23,0-50.47,0c-10.3,0-14.56-4.27-14.56-14.58q0-37.47,0-74.95c0-8.16,2.77-11.51,10.93-12.46,3.18-.37,3.27-2.13,3.27-4.41,0-7.33,0-14.66,0-22,0-38.91,39.74-63.55,74.12-45.27,16.19,8.61,25.89,22.77,26.72,41.77.37,8.47.14,17,0,25.47,0,3,.69,4.46,4.14,4.56,7.33.24,10.73,4.17,10.75,12.06,0,20.81,0,41.63,0,62.45,0,4.67,0,9.33-.06,14-.2,8.62-4.76,13.23-13.42,13.28-17.15.1-34.31,0-51.46,0Zm-.44-101.82V282c8.83,0,17.67-.08,26.49.05,3,0,4.16-1.07,4.12-4.07-.09-8,.13-16,0-24-.29-16.31-13.9-29.15-30.68-29.13-16.23,0-29.91,13.08-30.27,29.07-.17,7.49.14,15-.18,22.49-.19,4.28,1,5.93,5.55,5.74C969.82,281.81,978.16,282.05,986.49,282.05Zm-5.44,61.54h-.12c0,4.16,0,8.31,0,12.46,0,5,3.76,3.6,6.44,3.79s5.57.48,5.51-3.7c-.07-5.31,0-10.63,0-15.95,0-5.89-.46-11.53,4.22-16.67,3.73-4.1,1.71-11-2.88-14.55-4.42-3.38-12.27-2.88-16.13,1-4.09,4.14-4.55,11.14-.39,15.32a10.68,10.68,0,0,1,3.4,9.3C980.84,337.59,981.05,340.6,981.05,343.59Z" transform="translate(-469 -28)"/><path class="cls-2" d="M883.17,289.08c-.07,10.58-7.78,18.58-18,18.65a18.35,18.35,0,0,1-.52-36.7C875.28,271.13,883.24,278.9,883.17,289.08Z" transform="translate(-469 -28)"/><path class="cls-2" d="M1108.53,271c9.76,0,18.27,8.42,18.26,18a18.61,18.61,0,0,1-19.27,18.64c-9.31-.14-17.62-8.68-17.65-18.14A18.18,18.18,0,0,1,1108.53,271Z" transform="translate(-469 -28)"/><path class="cls-3" d="M696.1,424.06,695,422Z" transform="translate(-469 -28)"/><path class="cls-3" d="M697.29,425.41l.09,0Z" transform="translate(-469 -28)"/><path class="cls-3" d="M696.87,424.73,696,424Z" transform="translate(-469 -28)"/><path class="cls-2" d="M607.06,445.29l1.32-.47c3.38-.68,7.11-.35,9.69-3.35l2.08-.26A155.87,155.87,0,0,1,642,446l0,0c1.06,3.31,3.74,4.43,6.81,5a3.23,3.23,0,0,1,2.13,2.15,6.25,6.25,0,0,0,1.41,3.62,29.63,29.63,0,0,1,6.67,18.73c0,1.37.18,2.66,1.53,3.42a21.06,21.06,0,0,1,0,8c-2.67,2.54-1.72,5.55-.76,8.31s.07,3.69-2.6,3.66c-2.49,0-5,0-7.48,0-2.11,0-3.58-.68-3.72-3l.3-1a.62.62,0,0,0,0-.87L646.18,476c1.44-5.32-.7-10.72-5.13-12.94l-2-2c-.35-1.49-1.45-2-2.82-2.08l-.12-.07c-1.87-3.67-5.66-3.66-8.93-4.52-8.43-2.23-24.68,5.66-24,14.08a.44.44,0,0,1-.21.6c-5,7.26-2.93,15.15-2,22.93,0,.69,0,1.38,0,2.08-.17,2.88-.5,5.58-4.49,5.32-.43,0-.92.85-1.38,1.3a13.46,13.46,0,0,1-6,0c-3.94-2.5-.87-5.82-1-8.74-.36-10.38-.37-20.75,3-30.78l0-.07c2.56-1.12,3.67-3.22,4-5.86l.08-.12a12.15,12.15,0,0,0,6.91-6.86l1.52-1C605,447,606.5,447,607.06,445.29Z" transform="translate(-469 -28)"/><path class="cls-3" d="M595.07,500.66c.46-.45.95-1.33,1.38-1.3,4,.26,4.32-2.44,4.49-5.32a3.84,3.84,0,0,0,3.69,2c13.81-.05,27.61.6,41.42-.11.14,2.35,1.61,3.06,3.72,3,2.49,0,5,0,7.48,0,2.67,0,3.57-.86,2.6-3.66s-1.91-5.77.76-8.31a22.19,22.19,0,0,1,.32,4c-.32,3.38.83,5.15,4.43,5.76,5.36.92,8.11,4.86,8.16,9.95q.3,28.47-.06,56.95a11.9,11.9,0,0,1-11.76,11.44q-37.47.33-74.94.2c-7.14,0-12.34-5.79-12.39-13q-.2-26.47-.19-53c0-7.4,2.13-10.65,9.07-13.15,2.8-1,3.39-2.53,3.36-5.16-.07-6.65-.71-13.33.37-19.95.58-3.62,1.39-7.19,4.14-9.92-3.38,10-3.37,20.4-3,30.78.1,2.92-3,6.24,1,8.74-8.36.83-10.07,2-10.08,8q-.09,27,.18,54c.05,5.14,3.16,8.16,8.16,8.14q36.24-.09,72.48-.39c6.21,0,9.13-3.12,9.15-9.41q.09-26-.08-52c0-5.72-2-7.83-7.87-8-7-.19-14,0-21,0C625,500.88,610.05,501.46,595.07,500.66Z" transform="translate(-469 -28)"/><path class="cls-3" d="M660.61,479c-1.35-.76-1.52-2.05-1.53-3.42a29.63,29.63,0,0,0-6.67-18.73,6.25,6.25,0,0,1-1.41-3.62C658.68,460.15,661.43,468.91,660.61,479Z" transform="translate(-469 -28)"/><path class="cls-3" d="M642,446a155.87,155.87,0,0,0-21.88-4.82A30.15,30.15,0,0,1,642,446Z" transform="translate(-469 -28)"/><path class="cls-3" d="M602.13,448.21a12.15,12.15,0,0,1-6.91,6.86A14.35,14.35,0,0,1,602.13,448.21Z" transform="translate(-469 -28)"/><path class="cls-3" d="M618.07,441.47c-2.58,3-6.31,2.67-9.69,3.35C611.17,442.44,614.55,441.75,618.07,441.47Z" transform="translate(-469 -28)"/><path class="cls-3" d="M648.87,451.08c-3.07-.6-5.75-1.72-6.81-5A14.4,14.4,0,0,1,648.87,451.08Z" transform="translate(-469 -28)"/><path class="cls-3" d="M595.14,455.19c-.31,2.64-1.42,4.74-4,5.86A10.13,10.13,0,0,1,595.14,455.19Z" transform="translate(-469 -28)"/><path class="cls-3" d="M607.06,445.29c-.56,1.67-2,1.71-3.41,1.88A4.39,4.39,0,0,1,607.06,445.29Z" transform="translate(-469 -28)"/><path class="cls-2" d="M1251,736.91c-3.88,47.68-23.37,88-59.3,120.21l-.76.65c-9.83,8.59-9.84,8.6-19.65,0-38.71-33.8-58.09-76.61-59.69-127.78-.12-4,1.12-5.74,5.17-5.95,24-1.26,44.34-11,62-26.86,2.65-2.37,4.16-2.08,6.55.19,17.19,16.35,37.65,25.38,61.39,26.65,3.18.17,4.55,1.27,4.33,4.5C1250.85,731.2,1251,733.88,1251,736.91Z" transform="translate(-469 -28)"/><path class="cls-5" d="M1322.79,455.22c.28-4.8-1.63-10.46,1-14.2,2.93-4.22,9-1.4,13.61-2.06a96.89,96.89,0,0,0,49.06-22c3.68-3.07,6.22-3.08,9.78,0,16.46,14.27,35.56,21.94,57.46,22.06,3.75,0,5.25,1.2,5.47,5.13,2.95,53.38-15.22,97.64-57,131.58-12.54,10.19-10.09,9.81-22.4.25-32.63-25.35-50.16-59.29-55.63-99.85A123.11,123.11,0,0,1,1322.79,455.22Zm47.66,5.61c-.22.59-.45,1.18-.67,1.78-1.89,1.72-2.27,3.94-2.06,6.34-1.21,2.7-.54,5.59-.82,8.38-.3,3.07,1.06,6.36-1.15,9.18a.53.53,0,0,0-.65,0c-4.32-.18-6.76,2.34-6.83,6.2-.17,9.74-.78,19.51.34,29.24-.15,2.65-.43,5.3-.41,7.94.06,6.57,3.18,9.81,9.82,9.85q24.7.15,49.42,0c7.27,0,10-3,9.92-10.06-.12-11.31-.34-22.63-.34-33.94,0-5.14-.72-9.4-7.17-9.78-.77,0-1.47-1.19-2.2-1.83,0-1.74.06-3.48.1-5.22a6.84,6.84,0,0,0,.12-4.9,9.32,9.32,0,0,0-.25-5.1c-.21-.48-.43-1-.64-1.46s-.21-1-.32-1.54l-.67-1.33c-5-14.9-24.56-21.5-37.06-12.47l-1.13.86a13.36,13.36,0,0,0-6.87,7.23A.5.5,0,0,0,1370.45,460.83Z" transform="translate(-469 -28)"/><path class="cls-1" d="M789.6,776.16c-5.48,0-11,0-16.45,0-1.26,0-2.47.31-3-1.64-3-11,2.83-23.31,13.15-27.21a19.34,19.34,0,0,1,25.9,16.85c.68,12,.68,12-11.13,12H789.6Z" transform="translate(-469 -28)"/><path class="cls-1" d="M786.4,810.1c-.11-4.51.74-9-2.71-13.11-2.05-2.46-.35-5.89,2.28-7.84a6.71,6.71,0,0,1,8.76.23c2.51,2,3.61,5.44,1.72,7.54-3.81,4.22-2.49,9-2.83,13.58a40.21,40.21,0,0,0-.07,6.49c.28,2.87-1.17,3.24-3.54,3.24s-3.89-.22-3.65-3.14C786.55,814.78,786.4,812.43,786.4,810.1Z" transform="translate(-469 -28)"/><path class="cls-1" d="M974.35,776.14c-5.5,0-11-.08-16.48,0-2,.05-3.09-.43-3-2.71.18-3.32-.12-6.69.28-10a19.38,19.38,0,0,1,20.89-17.18,19.59,19.59,0,0,1,18.21,19.52c.19,10.26.19,10.26-9.95,10.25h-10Z" transform="translate(-469 -28)"/><path class="cls-1" d="M971.15,809.72c-.24-4.32.71-8.59-2.4-12.72-2-2.62-.26-6.22,2.66-8.15a6.13,6.13,0,0,1,8.21.74c2.35,2.4,3.54,5.45,1,8.44a9,9,0,0,0-2.07,6.86c.17,4-.32,8,0,11.93.28,3.74-2,3.21-4.32,3.46-3.09.32-3.13-1.37-3-3.59S971.16,812.05,971.15,809.72Z" transform="translate(-469 -28)"/><path class="cls-5" d="M986.49,282.05c-8.33,0-16.67-.24-25,.1-4.54.19-5.74-1.46-5.55-5.74.32-7.49,0-15,.18-22.49.36-16,14-29.06,30.27-29.07,16.78,0,30.39,12.82,30.68,29.13.14,8-.08,16,0,24,0,3-1.1,4.11-4.12,4.07-8.82-.13-17.66-.05-26.49-.05Z" transform="translate(-469 -28)"/><path class="cls-5" d="M981.05,343.59c0-3-.21-6,.06-9a10.68,10.68,0,0,0-3.4-9.3c-4.16-4.18-3.7-11.18.39-15.32,3.86-3.92,11.71-4.42,16.13-1,4.59,3.52,6.61,10.45,2.88,14.55-4.68,5.14-4.21,10.78-4.22,16.67,0,5.32-.09,10.64,0,15.95.06,4.18-2.86,3.88-5.51,3.7s-6.49,1.23-6.44-3.79c0-4.15,0-8.3,0-12.46Z" transform="translate(-469 -28)"/><path class="cls-5" d="M595.07,500.66c15,.8,30,.22,45,.33,7,.05,14-.15,21,0,5.82.15,7.84,2.26,7.87,8q.14,26,.08,52c0,6.29-2.94,9.36-9.15,9.41q-36.24.35-72.48.39c-5,0-8.11-3-8.16-8.14q-.27-27-.18-54c0-6,1.72-7.21,10.08-8A13.46,13.46,0,0,0,595.07,500.66Zm24.09,43.51c0,2.33,0,4.67,0,7,0,3,.11,5.69,4.31,5.71,4,0,4.6-2.18,4.63-5.46.08-8.2-1.05-16.45,4.22-24,2.3-3.29-.2-7.53-3.46-9.4a9.28,9.28,0,0,0-11.18.94c-2.85,2.49-4.92,5.81-2.3,9.18C619.21,533.06,619.57,538.43,619.16,544.17Z" transform="translate(-469 -28)"/><path class="cls-5" d="M646.05,496c-13.81.71-27.61.06-41.42.11a3.84,3.84,0,0,1-3.69-2c0-.7,0-1.39,0-2.08,1.6-7.56-.31-15.44,2-22.93a.44.44,0,0,0,.21-.6c2.46-3.09,4.6-6.4,8-8.73,8.18-5.65,16.5-4.46,25-.83l.12.07a3.9,3.9,0,0,0,2.82,2.08l2,2A38.58,38.58,0,0,1,646.18,476l.21,18.11a.79.79,0,0,0,0,.87Z" transform="translate(-469 -28)"/><path class="cls-3" d="M636.12,458.87c-8.45-3.63-16.77-4.82-25,.83-3.36,2.33-5.5,5.64-8,8.73-.7-8.42,15.55-16.31,24-14.08C630.46,455.21,634.25,455.2,636.12,458.87Z" transform="translate(-469 -28)"/><path class="cls-3" d="M603,469c-2.36,7.49-.45,15.37-2,22.93C600.07,484.18,598,476.29,603,469Z" transform="translate(-469 -28)"/><path class="cls-3" d="M646.18,476A38.58,38.58,0,0,0,641.05,463C645.48,465.25,647.62,470.65,646.18,476Z" transform="translate(-469 -28)"/><path class="cls-3" d="M639.06,461a3.9,3.9,0,0,1-2.82-2.08C637.61,459.05,638.71,459.53,639.06,461Z" transform="translate(-469 -28)"/><path class="cls-3" d="M646.35,495a.79.79,0,0,1,0-.87A.62.62,0,0,1,646.35,495Z" transform="translate(-469 -28)"/><path class="cls-2" d="M1370.93,460.22a13.36,13.36,0,0,1,6.87-7.23l1.13-.86c12.5-9,32.09-2.43,37.06,12.47l.67,1.33c.11.52.21,1,.32,1.54s.43,1,.64,1.46a9.32,9.32,0,0,1,.25,5.1,4,4,0,0,0-.12,4.9c0,1.74-.07,3.48-.1,5.22-1.56,1.48,2.46,4.75-1.74,5.38a15.49,15.49,0,0,1-7.29,0c-3-1.72-7.39,1.47-9.74-2.68,2.42-.36,4.84-.79,7.28-.21l.28,0,.26-.07c2.78-4.66.59-9.88,1.68-14.73a.58.58,0,0,0-.12-.72l-.42-2.6L1407,467c-9.88-11.63-20.5-11.57-28.5.15l-.54,1-1,4.89c-1.62,4.37-1.92,8.71.25,13l8.65.85c-.8,2.2-2.7,2-4.48,2.06-2.1.08-4.24-.29-6.27.56a23.69,23.69,0,0,1-8.48-.07,2.54,2.54,0,0,0-2.74.18,1,1,0,0,1-.64.37l.08,0c-1.88,1.84-1.68,4.2-1.7,6.53-.06,8.47-.17,16.94-.27,25.41l-2.8,0c-1.12-9.73-.51-19.5-.34-29.24.07-3.86,2.51-6.38,6.83-6.2l.33.09.32-.1c2.21-2.82.85-6.11,1.15-9.18.28-2.79-.39-5.68.82-8.38,1.7-1.78,1.66-4.13,2.06-6.34.22-.6.45-1.19.67-1.78A4,4,0,0,0,1370.93,460.22Z" transform="translate(-469 -28)"/><path class="cls-3" d="M1415.91,489.53c4.2-.63.18-3.9,1.74-5.38.73.64,1.43,1.79,2.2,1.83,6.45.38,7.16,4.64,7.17,9.78,0,11.31.22,22.63.34,33.94.07,7.09-2.65,10-9.92,10.06q-24.7.15-49.42,0c-6.64,0-9.76-3.28-9.82-9.85,0-2.64.26-5.29.41-7.94l2.8,0c.12,2.65.31,5.29.35,7.94.08,4.28,2.17,6.44,6.46,6.44,16.27,0,32.53.09,48.8-.09,5.64-.06,6.91-1.64,6.91-7.32,0-10.12-.2-20.25-.08-30.37C1423.94,490.69,1423.84,490.38,1415.91,489.53Z" transform="translate(-469 -28)"/><path class="cls-3" d="M1417.75,478.93a4,4,0,0,1,.12-4.9A6.84,6.84,0,0,1,1417.75,478.93Z" transform="translate(-469 -28)"/><path class="cls-3" d="M1369.78,462.61c-.4,2.21-.36,4.56-2.06,6.34C1367.51,466.55,1367.89,464.33,1369.78,462.61Z" transform="translate(-469 -28)"/><path class="cls-3" d="M1378.93,452.13l-1.13.86Z" transform="translate(-469 -28)"/><path class="cls-3" d="M1365.75,486.51l-.32.1-.33-.09A.53.53,0,0,1,1365.75,486.51Z" transform="translate(-469 -28)"/><path class="cls-3" d="M1370.93,460.22a4,4,0,0,1-.48.61A.5.5,0,0,1,1370.93,460.22Z" transform="translate(-469 -28)"/><path class="cls-3" d="M1417.62,468.93c-.21-.48-.43-1-.64-1.46C1417.19,468,1417.41,468.45,1417.62,468.93Z" transform="translate(-469 -28)"/><path class="cls-3" d="M1416.66,465.93l-.67-1.33Z" transform="translate(-469 -28)"/><path class="cls-6" d="M619.16,544.17c.41-5.74.05-11.11-3.79-16-2.62-3.37-.55-6.69,2.3-9.18a9.28,9.28,0,0,1,11.18-.94c3.26,1.87,5.76,6.11,3.46,9.4-5.27,7.56-4.14,15.81-4.22,24,0,3.28-.66,5.48-4.63,5.46-4.2,0-4.36-2.67-4.31-5.71C619.2,548.84,619.16,546.5,619.16,544.17Z" transform="translate(-469 -28)"/><path class="cls-5" d="M1415.91,489.53c7.93.85,8,1.16,7.94,9.07-.12,10.12.09,20.25.08,30.37,0,5.68-1.27,7.26-6.91,7.32-16.27.18-32.53.08-48.8.09-4.29,0-6.38-2.16-6.46-6.44,0-2.65-.23-5.29-.35-7.94.1-8.47.21-16.94.27-25.41,0-2.33-.18-4.69,1.7-6.53l-.08,0a.94.94,0,0,0,.63-.37l2.75-.18a23.69,23.69,0,0,0,8.48.07,321.94,321.94,0,0,0,33.46-.05A15.49,15.49,0,0,0,1415.91,489.53ZM1392.05,500c-2.31-.22-4.25,1.08-5.35,3.64-1,2.3-1.17,4.57,1.1,6.27,1.85,1.37,2.08,3.24,2.09,5.3,0,3.14,0,6.3.13,9.44.06,1.62.78,3,2.63,3s2.69-1.24,2.92-2.79a47.15,47.15,0,0,0,.29-5.45c.12-4.08-.3-8,2.33-11.89C1400.49,504.2,1397.15,500.12,1392.05,500Z" transform="translate(-469 -28)"/><path class="cls-5" d="M1385.91,486.94l-8.65-.85q-.12-6.51-.25-13l1-4.89.54-1c8-11.72,18.62-11.78,28.5-.15l.83,1.51.42,2.6a.66.66,0,0,0,.12.72c-1.09,4.85,1.1,10.07-1.67,14.73a.37.37,0,0,0-.55.05c-2.44-.58-4.86-.15-7.28.21A29.12,29.12,0,0,0,1385.91,486.94Z" transform="translate(-469 -28)"/><path class="cls-3" d="M1385.91,486.94a29.12,29.12,0,0,1,13-.11c2.35,4.15,6.72,1,9.74,2.68a321.94,321.94,0,0,1-33.46.05c2-.85,4.17-.48,6.27-.56C1383.21,488.93,1385.11,489.14,1385.91,486.94Z" transform="translate(-469 -28)"/><path class="cls-3" d="M1377,473.08q.13,6.5.25,13C1375.09,481.79,1375.39,477.45,1377,473.08Z" transform="translate(-469 -28)"/><path class="cls-3" d="M1366.68,489.49l-2.75.18A2.56,2.56,0,0,1,1366.68,489.49Z" transform="translate(-469 -28)"/><path class="cls-3" d="M1406.16,486.62a.37.37,0,0,1,.55-.05l-.27.07Z" transform="translate(-469 -28)"/><path class="cls-3" d="M1408.38,471.84a.66.66,0,0,1-.12-.72A.58.58,0,0,1,1408.38,471.84Z" transform="translate(-469 -28)"/><path class="cls-3" d="M1363.3,490l.08,0Z" transform="translate(-469 -28)"/><path class="cls-3" d="M1407.84,468.52,1407,467Z" transform="translate(-469 -28)"/><path class="cls-3" d="M1378.51,467.16l-.54,1Z" transform="translate(-469 -28)"/><path class="cls-6" d="M1392.05,500c5.1.13,8.44,4.21,6.14,7.56-2.63,3.85-2.21,7.81-2.33,11.89a47.15,47.15,0,0,1-.29,5.45c-.23,1.55-1.06,2.88-2.92,2.79s-2.57-1.42-2.63-3c-.12-3.14-.13-6.3-.13-9.44,0-2.06-.24-3.93-2.09-5.3-2.27-1.7-2.1-4-1.1-6.27C1387.8,501.07,1389.74,499.77,1392.05,500Z" transform="translate(-469 -28)"/></svg>